<?xml version="1.0" encoding="UTF-8" standalone="no"?>
<svg
   xmlns:dc="http://purl.org/dc/elements/1.1/"
   xmlns:cc="http://creativecommons.org/ns#"
   xmlns:rdf="http://www.w3.org/1999/02/22-rdf-syntax-ns#"
   xmlns:svg="http://www.w3.org/2000/svg"
   xmlns="http://www.w3.org/2000/svg"
   xmlns:sodipodi="http://sodipodi.sourceforge.net/DTD/sodipodi-0.dtd"
   xmlns:inkscape="http://www.inkscape.org/namespaces/inkscape"
   width="120mm"
   height="120mm"
   viewBox="0 0 120 120"
   version="1.1"
   id="svg8"
   inkscape:version="1.0 (4035a4fb49, 2020-05-01)"
   sodipodi:docname="cover.svg">
  <defs
     id="defs2" />
  <sodipodi:namedview
     id="base"
     pagecolor="#ffffff"
     bordercolor="#666666"
     borderopacity="1.0"
     inkscape:pageopacity="0.0"
     inkscape:pageshadow="2"
     inkscape:zoom="0.7"
     inkscape:cx="562.57109"
     inkscape:cy="369.52662"
     inkscape:document-units="mm"
     inkscape:current-layer="g14"
     inkscape:document-rotation="0"
     showgrid="false"
     width="160mm"
     lock-margins="false"
     inkscape:window-width="1920"
     inkscape:window-height="1017"
     inkscape:window-x="-8"
     inkscape:window-y="-8"
     inkscape:window-maximized="1" />
  <metadata
     id="metadata5">
    <rdf:RDF>
      <cc:Work
         rdf:about="">
        <dc:format>image/svg+xml</dc:format>
        <dc:type
           rdf:resource="http://purl.org/dc/dcmitype/StillImage" />
        <dc:title />
      </cc:Work>
    </rdf:RDF>
  </metadata>
  <g
     inkscape:label="Layer 1"
     inkscape:groupmode="layer"
     id="layer1">
    <g
       id="g79"
       transform="matrix(0.26458333,0,0,0.26458333,45.205952,109.4619)">
      <g
         id="Layer_1">
        <g
           id="g14">
          <circle
             id="circle12"
             cy="-191.92859"
             cx="53.785713"
             class="st0"
             style="fill:#7c8c49;fill-opacity:1;stroke-width:4.8058"
             r="153.78572" />
        </g>
        <g
           id="g18"
           class="st1"
           transform="matrix(4.8058036,0,0,4.8058036,-99.999998,-345.71421)">
          <path
             id="path16"
             d="m 44,52 c 0,1.1 -0.9,2 -2,2 H 22 c -1.1,0 -2,-0.9 -2,-2 v 0 c 0,-1.1 0.9,-2 2,-2 h 20 c 1.1,0 2,0.9 2,2 z"
             class="st2" />
        </g>
        <g
           id="g22"
           transform="matrix(4.8058036,0,0,4.8058036,-99.999998,-345.71421)">
          <path
             id="path20"
             d="m 44,50 c 0,1.1 -0.9,2 -2,2 H 22 c -1.1,0 -2,-0.9 -2,-2 v 0 c 0,-1.1 0.9,-2 2,-2 h 20 c 1.1,0 2,0.9 2,2 z"
             class="st3" />
        </g>
        <g
           id="g26"
           transform="matrix(4.8058036,0,0,4.8058036,-99.999998,-345.71421)">
          <path
             id="path24"
             d="m 37,42 c 0,0 -1,6 3,6 0,0 -20,0 -16,0 4,0 3,-6 3,-6 z"
             class="st4" />
        </g>
        <g
           id="g32"
           class="st1"
           transform="matrix(4.8058036,0,0,4.8058036,-99.999998,-345.71421)">
          <g
             id="g30">
            <path
               id="path28"
               d="m 52,40 c 0,2.2 -1.8,4 -4,4 H 16 c -2.2,0 -4,-1.8 -4,-4 V 18 c 0,-2.2 1.8,-4 4,-4 h 32 c 2.2,0 4,1.8 4,4 z"
               class="st2" />
          </g>
        </g>
        <g
           id="g42"
           transform="matrix(4.8058036,0,0,4.8058036,-99.999998,-345.71421)">
          <g
             id="g36">
            <path
               id="path34"
               d="m 16,40.5 c -1.4,0 -2.5,-1.1 -2.5,-2.5 V 16 c 0,-1.4 1.1,-2.5 2.5,-2.5 h 32 c 1.4,0 2.5,1.1 2.5,2.5 v 22 c 0,1.4 -1.1,2.5 -2.5,2.5 z"
               class="st5" />
          </g>
          <g
             id="g40">
            <path
               id="path38"
               d="m 48,15 c 0.6,0 1,0.4 1,1 v 22 c 0,0.6 -0.4,1 -1,1 H 16 c -0.6,0 -1,-0.4 -1,-1 V 16 c 0,-0.6 0.4,-1 1,-1 h 32 m 0,-3 H 16 c -2.2,0 -4,1.8 -4,4 v 22 c 0,2.2 1.8,4 4,4 h 32 c 2.2,0 4,-1.8 4,-4 V 16 c 0,-2.2 -1.8,-4 -4,-4 z"
               class="st3" />
          </g>
        </g>
        <g
           id="g46"
           class="st1"
           transform="matrix(4.8058036,0,0,4.8058036,-99.999998,-345.71421)">
          <polygon
             id="polygon44"
             points="50,39.9 50,13.9 26.2,13.9 41.2,39.9 "
             class="st3" />
        </g>
      </g>
      <g
         id="Layer_2" />
    </g>
  </g>
  <style
     id="style10"
     type="text/css">
	.st0{fill:#76C2AF;}
	.st1{opacity:0.2;}
	.st2{fill:#231F20;}
	.st3{fill:#FFFFFF;}
	.st4{fill:#E0E0D1;}
	.st5{fill:#4F5D73;}
</style>
</svg>
