<?xml version="1.0" encoding="UTF-8" standalone="no"?>
<svg
   xmlns:dc="http://purl.org/dc/elements/1.1/"
   xmlns:cc="http://creativecommons.org/ns#"
   xmlns:rdf="http://www.w3.org/1999/02/22-rdf-syntax-ns#"
   xmlns:svg="http://www.w3.org/2000/svg"
   xmlns="http://www.w3.org/2000/svg"
   xmlns:sodipodi="http://sodipodi.sourceforge.net/DTD/sodipodi-0.dtd"
   xmlns:inkscape="http://www.inkscape.org/namespaces/inkscape"
   sodipodi:docname="cover.svg"
   inkscape:version="1.0 (4035a4fb49, 2020-05-01)"
   id="svg8"
   version="1.1"
   viewBox="0 0 120 120"
   height="120mm"
   width="120mm">
  <defs
     id="defs2" />
  <sodipodi:namedview
     inkscape:window-maximized="1"
     inkscape:window-y="-8"
     inkscape:window-x="-8"
     inkscape:window-height="1017"
     inkscape:window-width="1920"
     lock-margins="false"
     width="160mm"
     showgrid="false"
     inkscape:document-rotation="0"
     inkscape:current-layer="g14"
     inkscape:document-units="mm"
     inkscape:cy="369.52662"
     inkscape:cx="562.57109"
     inkscape:zoom="0.7"
     inkscape:pageshadow="2"
     inkscape:pageopacity="0.0"
     borderopacity="1.0"
     bordercolor="#666666"
     pagecolor="#ffffff"
     id="base" />
  <metadata
     id="metadata5">
    <rdf:RDF>
      <cc:Work
         rdf:about="">
        <dc:format>image/svg+xml</dc:format>
        <dc:type
           rdf:resource="http://purl.org/dc/dcmitype/StillImage" />
        <dc:title></dc:title>
      </cc:Work>
    </rdf:RDF>
  </metadata>
  <g
     id="layer1"
     inkscape:groupmode="layer"
     inkscape:label="Layer 1">
    <g
       transform="matrix(0.26458333,0,0,0.26458333,45.205952,109.4619)"
       id="g79">
      <g
         id="Layer_1">
	<g
   id="g14">
		<circle
   r="153.78572"
   style="fill:#9f7833;fill-opacity:1;stroke-width:4.8058"
   class="st0"
   cx="53.785713"
   cy="-191.92859"
   id="circle12" />

	</g>

	<g
   transform="matrix(4.8058036,0,0,4.8058036,-99.999998,-345.71421)"
   class="st1"
   id="g18">
		<path
   class="st2"
   d="m 44,52 c 0,1.1 -0.9,2 -2,2 H 22 c -1.1,0 -2,-0.9 -2,-2 v 0 c 0,-1.1 0.9,-2 2,-2 h 20 c 1.1,0 2,0.9 2,2 z"
   id="path16" />

	</g>

	<g
   transform="matrix(4.8058036,0,0,4.8058036,-99.999998,-345.71421)"
   id="g22">
		<path
   class="st3"
   d="m 44,50 c 0,1.1 -0.9,2 -2,2 H 22 c -1.1,0 -2,-0.9 -2,-2 v 0 c 0,-1.1 0.9,-2 2,-2 h 20 c 1.1,0 2,0.9 2,2 z"
   id="path20" />

	</g>

	<g
   transform="matrix(4.8058036,0,0,4.8058036,-99.999998,-345.71421)"
   id="g26">
		<path
   class="st4"
   d="m 37,42 c 0,0 -1,6 3,6 0,0 -20,0 -16,0 4,0 3,-6 3,-6 z"
   id="path24" />

	</g>

	<g
   transform="matrix(4.8058036,0,0,4.8058036,-99.999998,-345.71421)"
   class="st1"
   id="g32">
		<g
   id="g30">
			<path
   class="st2"
   d="m 52,40 c 0,2.2 -1.8,4 -4,4 H 16 c -2.2,0 -4,-1.8 -4,-4 V 18 c 0,-2.2 1.8,-4 4,-4 h 32 c 2.2,0 4,1.8 4,4 z"
   id="path28" />

		</g>

	</g>

	<g
   transform="matrix(4.8058036,0,0,4.8058036,-99.999998,-345.71421)"
   id="g42">
		<g
   id="g36">
			<path
   class="st5"
   d="m 16,40.5 c -1.4,0 -2.5,-1.1 -2.5,-2.5 V 16 c 0,-1.4 1.1,-2.5 2.5,-2.5 h 32 c 1.4,0 2.5,1.1 2.5,2.5 v 22 c 0,1.4 -1.1,2.5 -2.5,2.5 z"
   id="path34" />

		</g>

		<g
   id="g40">
			<path
   class="st3"
   d="m 48,15 c 0.6,0 1,0.4 1,1 v 22 c 0,0.6 -0.4,1 -1,1 H 16 c -0.6,0 -1,-0.4 -1,-1 V 16 c 0,-0.6 0.4,-1 1,-1 h 32 m 0,-3 H 16 c -2.2,0 -4,1.8 -4,4 v 22 c 0,2.2 1.8,4 4,4 h 32 c 2.2,0 4,-1.8 4,-4 V 16 c 0,-2.2 -1.8,-4 -4,-4 z"
   id="path38" />

		</g>

	</g>

	<g
   transform="matrix(4.8058036,0,0,4.8058036,-99.999998,-345.71421)"
   class="st1"
   id="g46">
		<polygon
   class="st3"
   points="50,39.9 50,13.9 26.2,13.9 41.2,39.9 "
   id="polygon44" />

	</g>

</g>
      <g
         id="Layer_2">
</g>
    </g>
  </g>
  <style
     type="text/css"
     id="style10">
	.st0{fill:#76C2AF;}
	.st1{opacity:0.2;}
	.st2{fill:#231F20;}
	.st3{fill:#FFFFFF;}
	.st4{fill:#E0E0D1;}
	.st5{fill:#4F5D73;}
</style>
</svg>
